<svg width="704" height="686" viewBox="0 0 704 686" fill="none" xmlns="http://www.w3.org/2000/svg">
<path d="M352 0L438.603 75H265.397L352 0Z" fill="#F9C22B"/>
<path d="M352 686L265.397 611L438.603 611L352 686Z" fill="#F9C22B"/>
<path d="M704 345L629 431.603L629 258.397L704 345Z" fill="#F9C22B"/>
<path d="M594.355 100.645L602.56 214.915L480.085 92.4404L594.355 100.645Z" fill="#F9C22B"/>
<path d="M109.711 585.421L101.506 471.151L223.981 593.626L109.711 585.421Z" fill="#F9C22B"/>
<path d="M112.938 97.4698L227.208 89.2655L104.734 211.74L112.938 97.4698Z" fill="#F9C22B"/>
<path d="M590.128 588.596L475.858 596.801L598.332 474.326L590.128 588.596Z" fill="#F9C22B"/>
<path d="M1.19249e-06 343L75 256.397L75 429.603L1.19249e-06 343Z" fill="#F9C22B"/>
<path d="M352 143C462.457 143 552 232.543 552 343C552 453.457 462.457 543 352 543C241.543 543 152 453.457 152 343C152 232.543 241.543 143 352 143ZM452.5 255C440.241 255 430.273 264.805 430.007 277H373.993C373.727 264.805 363.759 255 351.5 255C339.241 255 329.273 264.805 329.007 277H272.993C272.727 264.805 262.759 255 250.5 255C238.074 255 228 265.074 228 277.5C228 289.926 238.074 300 250.5 300C261.736 300 271.047 291.764 272.729 281H329.271C330.953 291.764 340.264 300 351.5 300C351.728 300 351.955 299.995 352.181 299.988C354.208 326.135 354.759 348.063 353.54 366.163C352.007 388.92 347.69 405.395 340.206 416.583C332.802 427.651 322.17 433.733 307.449 435.471C297.738 436.617 286.263 435.867 272.817 433.374C272.937 432.433 273 431.474 273 430.5C273 418.074 262.926 408 250.5 408C238.074 408 228 418.074 228 430.5C228 442.926 238.074 453 250.5 453C260.562 453 269.079 446.395 271.957 437.284C285.732 439.847 297.674 440.653 307.918 439.443C323.636 437.587 335.389 430.977 343.53 418.808C351.591 406.758 355.98 389.449 357.53 366.432C358.769 348.036 358.202 325.844 356.156 299.516C365.228 297.607 372.286 290.235 373.729 281H430.271C431.953 291.764 441.264 300 452.5 300C464.926 300 475 289.926 475 277.5C475 265.074 464.926 255 452.5 255Z" fill="#F9C22B"/>
</svg>
